 <svg  version="1.0" xmlns="http://www.w3.org/2000/svg"  width="300.000000pt" height="300.000000pt" viewBox="0 0 300.000000 300.000000"  preserveAspectRatio="xMidYMid meet">  <g transform="translate(0.000000,300.000000) scale(0.100000,-0.100000)" fill="#2f6cf9" stroke="none"> <path d="M120 2727 c0 -23 3 -24 118 -30 143 -8 187 -20 228 -61 61 -61 59 -27 59 -1121 l0 -1000 -25 -49 c-43 -85 -80 -101 -262 -112 -105 -7 -108 -8 -108 -31 l0 -23 1320 0 1320 0 0 535 0 535 -23 0 c-20 0 -28 -11 -52 -72 -15 -40 -54 -125 -86 -189 -32 -64 -56 -119 -53 -123 2 -3 1 -4 -2 -2 -3 2 -41 -48 -84 -112 -102 -153 -191 -261 -281 -347 -41 -38 -73 -73 -71 -78 1 -5 -2 -6 -6 -3 -5 3 -34 -8 -63 -23 -74 -40 -157 -51 -451 -58 l-248 -6 0 582 0 581 73 0 c120 0 227 -36 294 -98 17 -16 35 -27 38 -23 4 3 5 1 4 -4 -2 -6 11 -32 29 -60 58 -89 101 -236 102 -342 0 -52 0 -53 30 -53 l30 0 0 610 0 610 -29 0 -28 0 -6 -82 c-14 -198 -114 -385 -238 -449 -60 -30 -147 -49 -226 -49 l-73 0 0 557 0 556 198 -6 c108 -4 228 -11 266 -17 94 -14 178 -58 289 -150 196 -165 370 -393 503 -662 40 -81 52 -98 71 -98 l23 0 0 495 0 495 -1290 0 -1290 0 0 -23z m30 -7 c0 -5 -4 -10 -10 -10 -5 0 -10 5 -10 10 0 6 5 10 10 10 6 0 10 -4 10 -10z m157 -6 c-3 -3 -12 -4 -19 -1 -8 3 -5 6 6 6 11 1 17 -2 13 -5z m1111 -1 c-10 -2 -26 -2 -35 0 -10 3 -2 5 17 5 19 0 27 -2 18 -5z m1269 -900 c-4 -3 -7 0 -7 7 0 7 3 10 7 7 3 -4 3 -10 0 -14z m-1300 -249 c-3 -3 -12 -4 -19 -1 -8 3 -5 6 6 6 11 1 17 -2 13 -5z m1370 -221 c-4 -3 -10 -3 -14 0 -3 4 0 7 7 7 7 0 10 -3 7 -7z m-2580 -1019 c-3 -3 -12 -4 -19 -1 -8 3 -5 6 6 6 11 1 17 -2 13 -5z"/> </g> </svg> 